<mxfile host="Electron" modified="2025-03-22T05:00:26.675Z" agent="Mozilla/5.0 (Windows NT 10.0; Win64; x64) AppleWebKit/537.36 (KHTML, like Gecko) draw.io/21.6.8 Chrome/114.0.5735.289 Electron/25.5.0 Safari/537.36" etag="c-YHPGYoIKRgYGS-GQ-k" version="21.6.8" type="device">
  <diagram id="C5RBs43oDa-KdzZeNtuy" name="Page-1">
    <mxGraphModel dx="1658" dy="820" grid="1" gridSize="10" guides="1" tooltips="1" connect="1" arrows="1" fold="1" page="1" pageScale="1" pageWidth="827" pageHeight="1169" math="0" shadow="0">
      <root>
        <mxCell id="WIyWlLk6GJQsqaUBKTNV-0" />
        <mxCell id="WIyWlLk6GJQsqaUBKTNV-1" parent="WIyWlLk6GJQsqaUBKTNV-0" />
        <mxCell id="oFLv-hkB5sQ34_Nma_p_-0" value="Message Broker" style="whiteSpace=wrap;strokeWidth=2;verticalAlign=top;" vertex="1" parent="WIyWlLk6GJQsqaUBKTNV-1">
          <mxGeometry x="396" y="276" width="254" height="84" as="geometry" />
        </mxCell>
        <mxCell id="oFLv-hkB5sQ34_Nma_p_-1" value="Kafka Message Broker" style="whiteSpace=wrap;strokeWidth=2;" vertex="1" parent="WIyWlLk6GJQsqaUBKTNV-1">
          <mxGeometry x="443" y="301" width="171" height="34" as="geometry" />
        </mxCell>
        <mxCell id="oFLv-hkB5sQ34_Nma_p_-2" value="Databases" style="whiteSpace=wrap;strokeWidth=2;verticalAlign=top;" vertex="1" parent="WIyWlLk6GJQsqaUBKTNV-1">
          <mxGeometry x="20" y="429" width="317" height="84" as="geometry" />
        </mxCell>
        <mxCell id="oFLv-hkB5sQ34_Nma_p_-3" value="MySQL" style="whiteSpace=wrap;strokeWidth=2;" vertex="1" parent="WIyWlLk6GJQsqaUBKTNV-1">
          <mxGeometry x="170" y="454" width="63" height="34" as="geometry" />
        </mxCell>
        <mxCell id="oFLv-hkB5sQ34_Nma_p_-4" value="Caching" style="whiteSpace=wrap;strokeWidth=2;verticalAlign=top;" vertex="1" parent="WIyWlLk6GJQsqaUBKTNV-1">
          <mxGeometry x="314" y="20" width="123" height="84" as="geometry" />
        </mxCell>
        <mxCell id="oFLv-hkB5sQ34_Nma_p_-5" value="Redis" style="whiteSpace=wrap;strokeWidth=2;" vertex="1" parent="WIyWlLk6GJQsqaUBKTNV-1">
          <mxGeometry x="349" y="45" width="53" height="34" as="geometry" />
        </mxCell>
        <mxCell id="oFLv-hkB5sQ34_Nma_p_-6" value="Client" style="whiteSpace=wrap;strokeWidth=2;verticalAlign=top;" vertex="1" parent="WIyWlLk6GJQsqaUBKTNV-1">
          <mxGeometry x="20" y="20" width="211" height="84" as="geometry" />
        </mxCell>
        <mxCell id="oFLv-hkB5sQ34_Nma_p_-7" value="Client" style="whiteSpace=wrap;strokeWidth=2;" vertex="1" parent="WIyWlLk6GJQsqaUBKTNV-1">
          <mxGeometry x="82" y="45" width="58" height="34" as="geometry" />
        </mxCell>
        <mxCell id="oFLv-hkB5sQ34_Nma_p_-8" value="User Service" style="whiteSpace=wrap;strokeWidth=2;" vertex="1" parent="WIyWlLk6GJQsqaUBKTNV-1">
          <mxGeometry x="20" y="301" width="104" height="34" as="geometry" />
        </mxCell>
        <mxCell id="oFLv-hkB5sQ34_Nma_p_-9" value="Product Service" style="whiteSpace=wrap;strokeWidth=2;" vertex="1" parent="WIyWlLk6GJQsqaUBKTNV-1">
          <mxGeometry x="231" y="173" width="127" height="34" as="geometry" />
        </mxCell>
        <mxCell id="oFLv-hkB5sQ34_Nma_p_-10" value="Payment Service" style="whiteSpace=wrap;strokeWidth=2;" vertex="1" parent="WIyWlLk6GJQsqaUBKTNV-1">
          <mxGeometry x="227" y="301" width="133" height="34" as="geometry" />
        </mxCell>
        <mxCell id="oFLv-hkB5sQ34_Nma_p_-11" value="Notification Service" style="whiteSpace=wrap;strokeWidth=2;" vertex="1" parent="WIyWlLk6GJQsqaUBKTNV-1">
          <mxGeometry x="450" y="454" width="157" height="34" as="geometry" />
        </mxCell>
        <mxCell id="oFLv-hkB5sQ34_Nma_p_-12" value="Routes Requests" style="curved=1;startArrow=none;endArrow=block;exitX=0.2256845558805419;exitY=1;entryX=0.4997746394230769;entryY=0;rounded=0;" edge="1" parent="WIyWlLk6GJQsqaUBKTNV-1" source="oFLv-hkB5sQ34_Nma_p_-7" target="oFLv-hkB5sQ34_Nma_p_-8">
          <mxGeometry relative="1" as="geometry">
            <Array as="points">
              <mxPoint x="72" y="104" />
            </Array>
          </mxGeometry>
        </mxCell>
        <mxCell id="oFLv-hkB5sQ34_Nma_p_-13" value="Routes Requests" style="curved=1;startArrow=none;endArrow=block;exitX=0.9994275323275862;exitY=0.9599466600945331;entryX=0.22411695039561186;entryY=0;rounded=0;" edge="1" parent="WIyWlLk6GJQsqaUBKTNV-1" source="oFLv-hkB5sQ34_Nma_p_-7" target="oFLv-hkB5sQ34_Nma_p_-9">
          <mxGeometry relative="1" as="geometry">
            <Array as="points">
              <mxPoint x="189" y="104" />
              <mxPoint x="189" y="139" />
            </Array>
          </mxGeometry>
        </mxCell>
        <mxCell id="oFLv-hkB5sQ34_Nma_p_-14" value="Routes Requests" style="curved=1;startArrow=none;endArrow=block;exitX=0.4970318651574803;exitY=1;entryX=0.5046845629699248;entryY=0;rounded=0;" edge="1" parent="WIyWlLk6GJQsqaUBKTNV-1" source="oFLv-hkB5sQ34_Nma_p_-9" target="oFLv-hkB5sQ34_Nma_p_-10">
          <mxGeometry relative="1" as="geometry">
            <Array as="points" />
          </mxGeometry>
        </mxCell>
        <mxCell id="oFLv-hkB5sQ34_Nma_p_-15" value="Uses" style="curved=1;startArrow=none;endArrow=block;exitX=0.4997746394230769;exitY=1;entryX=0.004743303571428571;entryY=0.20117062411140174;rounded=0;" edge="1" parent="WIyWlLk6GJQsqaUBKTNV-1" source="oFLv-hkB5sQ34_Nma_p_-8" target="oFLv-hkB5sQ34_Nma_p_-3">
          <mxGeometry relative="1" as="geometry">
            <Array as="points">
              <mxPoint x="72" y="429" />
            </Array>
          </mxGeometry>
        </mxCell>
        <mxCell id="oFLv-hkB5sQ34_Nma_p_-16" value="Uses" style="curved=1;startArrow=none;endArrow=block;exitX=0.19042901560469383;exitY=1;entryX=0.3388516865079365;entryY=0;rounded=0;" edge="1" parent="WIyWlLk6GJQsqaUBKTNV-1" source="oFLv-hkB5sQ34_Nma_p_-9" target="oFLv-hkB5sQ34_Nma_p_-3">
          <mxGeometry relative="1" as="geometry">
            <Array as="points">
              <mxPoint x="176" y="242" />
              <mxPoint x="176" y="429" />
            </Array>
          </mxGeometry>
        </mxCell>
        <mxCell id="oFLv-hkB5sQ34_Nma_p_-17" value="Uses" style="curved=1;startArrow=none;endArrow=block;exitX=0.5046845629699248;exitY=1;entryX=1.0007750496031746;entryY=0.08077143901038607;rounded=0;" edge="1" parent="WIyWlLk6GJQsqaUBKTNV-1" source="oFLv-hkB5sQ34_Nma_p_-10" target="oFLv-hkB5sQ34_Nma_p_-3">
          <mxGeometry relative="1" as="geometry">
            <Array as="points">
              <mxPoint x="294" y="429" />
            </Array>
          </mxGeometry>
        </mxCell>
        <mxCell id="oFLv-hkB5sQ34_Nma_p_-18" value="Sends Events" style="curved=1;startArrow=none;endArrow=block;exitX=0.6298422334698212;exitY=0;entryX=0.6192118751740463;entryY=1;rounded=0;" edge="1" parent="WIyWlLk6GJQsqaUBKTNV-1" source="oFLv-hkB5sQ34_Nma_p_-11" target="oFLv-hkB5sQ34_Nma_p_-1">
          <mxGeometry relative="1" as="geometry">
            <Array as="points">
              <mxPoint x="580" y="429" />
              <mxPoint x="580" y="360" />
            </Array>
          </mxGeometry>
        </mxCell>
        <mxCell id="oFLv-hkB5sQ34_Nma_p_-19" value="" style="curved=1;startArrow=none;endArrow=block;exitX=0.49576208726415094;exitY=1;entryX=0.7079621982742145;entryY=0;rounded=0;" edge="1" parent="WIyWlLk6GJQsqaUBKTNV-1" source="oFLv-hkB5sQ34_Nma_p_-5" target="oFLv-hkB5sQ34_Nma_p_-9">
          <mxGeometry relative="1" as="geometry">
            <Array as="points">
              <mxPoint x="375" y="139" />
            </Array>
          </mxGeometry>
        </mxCell>
        <mxCell id="oFLv-hkB5sQ34_Nma_p_-20" value="Publishes" style="curved=1;startArrow=none;endArrow=block;exitX=0.9957707923228346;exitY=0.9104643595493246;entryX=0.49626507675438597;entryY=0;rounded=0;" edge="1" parent="WIyWlLk6GJQsqaUBKTNV-1" source="oFLv-hkB5sQ34_Nma_p_-9" target="oFLv-hkB5sQ34_Nma_p_-1">
          <mxGeometry relative="1" as="geometry">
            <Array as="points">
              <mxPoint x="528" y="242" />
            </Array>
          </mxGeometry>
        </mxCell>
        <mxCell id="oFLv-hkB5sQ34_Nma_p_-21" value="Subscribes" style="curved=1;startArrow=none;endArrow=block;exitX=0.3733182783347256;exitY=1;entryX=0.3620218190779495;entryY=0;rounded=0;" edge="1" parent="WIyWlLk6GJQsqaUBKTNV-1" source="oFLv-hkB5sQ34_Nma_p_-1" target="oFLv-hkB5sQ34_Nma_p_-11">
          <mxGeometry relative="1" as="geometry">
            <Array as="points">
              <mxPoint x="476" y="360" />
              <mxPoint x="476" y="429" />
            </Array>
          </mxGeometry>
        </mxCell>
      </root>
    </mxGraphModel>
  </diagram>
</mxfile>
